<?xml version="1.0" encoding="iso-8859-1"?>
<!-- Generator: Adobe Illustrator 19.0.0, SVG Export Plug-In . SVG Version: 6.00 Build 0)  -->
<svg xmlns="http://www.w3.org/2000/svg" xmlns:xlink="http://www.w3.org/1999/xlink" version="1.1" id="Layer_1" x="0px" y="0px" viewBox="0 0 512.001 512.001" style="enable-background:new 0 0 512.001 512.001;" xml:space="preserve">
<g>
	<g>
		<g>
			<path d="M100.145,199.232v161.774c0,5.554,4.502,10.056,10.056,10.056h291.62c5.554,0,10.056-4.502,10.056-10.056V199.232     c16.791-2.528,32.258-10.418,44.307-22.755c14.389-14.735,22.313-34.196,22.313-54.8c0-43.249-35.186-78.436-78.436-78.436     c-7.519,0-14.863,1.042-21.943,3.104C365.632,18.603,337.561,0,306.541,0c-18.544,0-36.471,6.628-50.531,18.451     C241.95,6.628,224.024,0,205.48,0c-31.019,0-59.09,18.603-71.577,46.344c-7.08-2.062-14.424-3.104-21.943-3.104     c-43.249,0-78.436,35.186-78.436,78.436c0,20.603,7.924,40.066,22.313,54.8C67.888,188.814,83.354,196.704,100.145,199.232z      M111.96,63.352c8.295,0,16.295,1.697,23.778,5.046c2.654,1.187,5.69,1.167,8.327-0.051c2.638-1.22,4.619-3.521,5.433-6.31     c7.206-24.684,30.226-41.925,55.981-41.925c16.357,0,32.067,6.935,43.103,19.027c1.906,2.088,4.602,3.277,7.427,3.277     c2.827,0,5.523-1.19,7.427-3.277c11.036-12.092,26.748-19.027,43.103-19.027c25.755,0,48.775,17.241,55.982,41.925     c0.815,2.789,2.796,5.09,5.433,6.31c2.64,1.22,5.674,1.238,8.327,0.051c7.483-3.349,15.483-5.046,23.777-5.046     c32.16,0,58.324,26.164,58.324,58.324c0,31.889-24.958,57.501-56.819,58.307c-5.452,0.139-9.801,4.599-9.801,10.053v160.914     H120.257V190.036c0-5.454-4.349-9.914-9.801-10.053c-31.861-0.805-56.819-26.418-56.819-58.307     C53.636,89.516,79.801,63.352,111.96,63.352z"/>
			<path d="M230.895,411.997c-10.529-8.976-25.066-12.517-40.931-9.97c-0.146,0.023-0.29,0.049-0.433,0.079     c-4.744,0.976-12.441,3.434-23.092,6.836c-18.778,5.996-44.496,14.209-68.697,18.887c-0.104,0.02-0.207,0.042-0.311,0.064     c-30.763,6.958-58.683,8.184-67.858,8.588c-0.865,0.038-1.777,0.078-2.702,0.178c-3.622,0.121-6.888,2.182-8.544,5.381     c-0.25,0.479-0.46,0.974-0.628,1.481c-0.318,0.955-0.487,1.945-0.511,2.933c-0.091,3.745,2.033,7.379,5.339,9.13     c0.185,0.112,0.441,0.269,0.767,0.469c24.632,15.038,50.48,27.75,72.803,35.807c32.918,12.972,69.343,20.142,88.786,20.142     c3.366,0,6.224-0.215,8.465-0.652c28.539-4.701,52.608-34.255,52.606-64.652C245.957,432.599,240.608,420.276,230.895,411.997z      M225.843,446.699c0.003,20.809-16.763,41.754-35.88,44.824c-0.146,0.023-0.29,0.049-0.433,0.079     c-9.106,1.876-48.748-3.729-86.189-18.507c-0.094-0.037-0.188-0.072-0.284-0.107c-13.038-4.697-27.405-11.111-42.037-18.717     c11.87-1.319,25.945-3.4,40.693-6.727c25.321-4.907,51.626-13.307,70.843-19.444c9.129-2.915,17.036-5.44,20.821-6.252     c9.861-1.534,18.543,0.4,24.472,5.454C223.08,431.763,225.845,438.47,225.843,446.699     C225.843,446.697,225.843,446.698,225.843,446.699z"/>
			<path d="M494.323,443.519c-0.88-2.647-2.792-4.9-5.387-5.971c-1.148-0.522-2.429-0.845-3.785-0.89     c-0.925-0.1-1.837-0.14-2.702-0.178c-9.175-0.403-37.096-1.63-67.858-8.588c-0.104-0.023-0.207-0.044-0.311-0.064     c-24.2-4.677-49.919-12.89-68.697-18.887c-10.652-3.402-18.349-5.859-23.092-6.836c-0.144-0.029-0.289-0.056-0.433-0.079     c-15.863-2.546-30.401,0.995-40.931,9.97c-9.714,8.28-15.062,20.602-15.061,34.703c-0.002,30.394,24.068,59.948,52.606,64.649     c2.242,0.437,5.097,0.652,8.465,0.652c19.444-0.001,55.871-7.171,88.786-20.142c22.323-8.058,48.172-20.77,72.803-35.807     c0.327-0.2,0.584-0.357,0.769-0.47C493.61,453.094,495.881,448.2,494.323,443.519z M408.964,472.988     c-0.096,0.034-0.189,0.07-0.284,0.107c-37.441,14.779-77.081,20.38-86.189,18.507c-0.144-0.03-0.289-0.056-0.433-0.079     c-19.117-3.069-35.883-24.014-35.88-44.824c0-0.001,0-0.002,0-0.003c-0.001-8.229,2.763-14.935,7.995-19.395     c4.603-3.924,10.866-5.966,18.052-5.966c2.07,0,4.215,0.169,6.42,0.512c3.785,0.812,11.691,3.336,20.821,6.252     c19.217,6.137,45.522,14.537,70.843,19.444c14.748,3.328,28.823,5.408,40.693,6.727     C436.37,461.878,422.003,468.29,408.964,472.988z"/>
			<path d="M173.553,321.453c5.554,0,10.056-4.502,10.056-10.056V198.771c0-5.554-4.502-10.056-10.056-10.056     c-5.554,0-10.056,4.502-10.056,10.056v112.626C163.497,316.95,167.999,321.453,173.553,321.453z"/>
			<path d="M256.011,209.833c5.554,0,10.056-4.502,10.056-10.056v-1.006c0-5.554-4.502-10.056-10.056-10.056     c-5.554,0-10.056,4.502-10.056,10.056v1.006C245.955,205.331,250.457,209.833,256.011,209.833z"/>
			<path d="M256.011,321.453c5.554,0,10.056-4.502,10.056-10.056v-70.224c0-5.554-4.502-10.056-10.056-10.056     c-5.554,0-10.056,4.502-10.056,10.056v70.224C245.955,316.95,250.457,321.453,256.011,321.453z"/>
			<path d="M338.469,321.453c5.554,0,10.056-4.502,10.056-10.056V198.771c0-5.554-4.502-10.056-10.056-10.056     c-5.554,0-10.056,4.502-10.056,10.056v112.626C328.413,316.95,332.915,321.453,338.469,321.453z"/>
		</g>
	</g>
</g>
<g>
</g>
<g>
</g>
<g>
</g>
<g>
</g>
<g>
</g>
<g>
</g>
<g>
</g>
<g>
</g>
<g>
</g>
<g>
</g>
<g>
</g>
<g>
</g>
<g>
</g>
<g>
</g>
<g>
</g>
</svg>
