<svg id="Layer_1" data-name="Layer 1" xmlns="http://www.w3.org/2000/svg" viewBox="0 0 95 95"><path d="M39.36,23.75h0a.74.74,0,0,1-.55-.26A18.29,18.29,0,0,0,37,21.73c-.26-.24-.55-.47-.83-.71-1.45-1.21-3.1-2.58-3.1-4.45a3.92,3.92,0,0,1,3.66-4,3.67,3.67,0,0,1,2.53,1,3.65,3.65,0,0,1,2.52-1,3.92,3.92,0,0,1,3.66,4c0,1.74-1.51,3.11-3,4.42l-.78.72c-1,.9-1.8,1.8-1.81,1.81A.74.74,0,0,1,39.36,23.75Zm-2.61-9.64a2.45,2.45,0,0,0-2.16,2.46c0,1.17,1.3,2.25,2.56,3.3.3.25.59.49.86.74.57.5,1,1,1.36,1.3.34-.35.81-.82,1.31-1.29.26-.25.53-.49.81-.74,1.22-1.1,2.47-2.23,2.47-3.31a2.45,2.45,0,0,0-2.16-2.46,2.16,2.16,0,0,0-1.87,1.09.78.78,0,0,1-1.3,0A2.19,2.19,0,0,0,36.75,14.11Z"/><path d="M46.61,11.13h0a.79.79,0,0,1-.56-.27,14,14,0,0,0-1.42-1.42l-.68-.58c-1.21-1-2.57-2.14-2.57-3.73a3.35,3.35,0,0,1,3.12-3.38,3.14,3.14,0,0,1,2.06.78,3.18,3.18,0,0,1,2.07-.78,3.35,3.35,0,0,1,3.12,3.38c0,1.48-1.25,2.61-2.47,3.71l-.64.58c-.78.74-1.46,1.47-1.47,1.47A.75.75,0,0,1,46.61,11.13ZM44.48,3.25a1.86,1.86,0,0,0-1.62,1.88c0,.88,1,1.75,2,2.58.25.21.49.41.71.61.42.36.76.7,1,1,.27-.28.61-.62,1-1l.67-.61c1-.87,2-1.78,2-2.59a1.86,1.86,0,0,0-1.62-1.88,1.64,1.64,0,0,0-1.41.82.78.78,0,0,1-1.31,0A1.64,1.64,0,0,0,44.48,3.25Z"/><path d="M50.15,18.3A2.34,2.34,0,1,1,52.49,16,2.34,2.34,0,0,1,50.15,18.3Zm0-3.18A.84.84,0,1,0,51,16,.85.85,0,0,0,50.15,15.12Z"/><path d="M24.88,18.93a3,3,0,1,1,3-3A3,3,0,0,1,24.88,18.93Zm0-4.44A1.47,1.47,0,1,0,26.35,16,1.47,1.47,0,0,0,24.88,14.49Z"/><path d="M33.84,9.67a3.23,3.23,0,1,1,3.23-3.23A3.23,3.23,0,0,1,33.84,9.67Zm0-5a1.73,1.73,0,1,0,1.73,1.73A1.73,1.73,0,0,0,33.84,4.71Z"/><path d="M26.2,93.24c-3.07,0-8.37-1.32-9.61-1.64-1.51-.32-9.29-2-10.72-3.77a1.5,1.5,0,0,1-.35-1.6c.44-1,2-1.24,3.71-1.34h.15c1.13-.08,2.24-.13,3.3-.15h.18a3.39,3.39,0,0,0,2.2-.5,3.87,3.87,0,0,0,.68-1,20.16,20.16,0,0,0,1.45-3.88,109.41,109.41,0,0,0,2.72-13A7,7,0,0,0,18.66,61c-.61-.94-1.3-1.91-2-2.94-2.88-4-6.15-8.56-5.28-13.66,1.34-7.85,9.11-19.21,9.44-19.68a.75.75,0,0,1,.79-.31L42,29.15a.76.76,0,0,1,.57.63c.08.57,2,14.2-.29,21.83-1.48,5-6.43,7.58-10.8,9.89-1.11.6-2.17,1.15-3.13,1.73a7,7,0,0,0-3.51,4.28,106.23,106.23,0,0,0-3.33,12.83,20.29,20.29,0,0,0-.43,4.12,3.79,3.79,0,0,0,.16,1.22c.24.63,1,1,1.74,1.42l.17.09c.94.49,1.91,1,2.88,1.6l.13.08c1.45.83,2.78,1.75,2.73,2.84a1.47,1.47,0,0,1-1,1.28A4.32,4.32,0,0,1,26.2,93.24ZM7,86.8a.19.19,0,0,0,.06.07c.8,1,6.27,2.5,9.9,3.27,3.62.93,9.2,2,10.36,1.48l.08,0a6.25,6.25,0,0,0-1.92-1.41l-.14-.08c-1-.56-1.91-1.09-2.83-1.57l-.16-.09a4.64,4.64,0,0,1-2.45-2.21,5,5,0,0,1-.26-1.72,21.54,21.54,0,0,1,.45-4.43,111.64,111.64,0,0,1,3.37-13,8.5,8.5,0,0,1,4.18-5.12c1-.59,2.07-1.16,3.2-1.76,4.11-2.18,8.76-4.64,10.07-9,1.94-6.51.62-18.13.3-20.69L21.74,25.94c-1.43,2.14-7.77,12-8.92,18.67-.77,4.48,2.31,8.76,5,12.53.75,1,1.45,2,2.08,3a8.48,8.48,0,0,1,1.47,6.44,111.73,111.73,0,0,1-2.76,13.16,22.27,22.27,0,0,1-1.56,4.17,5.23,5.23,0,0,1-1,1.42,4.64,4.64,0,0,1-3.19.89h-.18c-1,0-2.12.07-3.23.15H9.32A5.89,5.89,0,0,0,7,86.8Z"/><path d="M18,39.28c-2.34,0-3.89-.1-4.1-.12a.75.75,0,0,1,.11-1.5c.18,0,18.13,1.24,27.77-5.14a.75.75,0,0,1,.82,1.25C35.39,38.57,24.07,39.28,18,39.28Z"/><path d="M69.07,85.05a2.77,2.77,0,0,1-.62-.06,1.47,1.47,0,0,1-1.22-1.09c-.24-1.07.92-2.2,2.21-3.26l.12-.1c.86-.73,1.73-1.42,2.57-2.06l.14-.11c.67-.51,1.36-1,1.49-1.7a3.65,3.65,0,0,0-.05-1.23,20.17,20.17,0,0,0-1.11-4,110.76,110.76,0,0,0-5.43-12.1A7,7,0,0,0,63,55.73c-1.05-.41-2.18-.78-3.38-1.18-4.69-1.55-10-3.3-12.31-7.94-3.53-7.14-3.92-20.9-3.94-21.48a.75.75,0,0,1,.46-.71l19.36-8.15a.74.74,0,0,1,.83.17c.4.41,10,10.31,12.61,17.82,1.72,4.89-.74,9.92-2.91,14.36-.56,1.13-1.08,2.2-1.52,3.23a7,7,0,0,0-.33,5.53,109.43,109.43,0,0,0,4.85,12.33,20.44,20.44,0,0,0,2.08,3.59,4,4,0,0,0,.84.89,3.47,3.47,0,0,0,2.26.13l.18,0c1.05-.15,2.15-.29,3.28-.4l.15,0c1.66-.18,3.27-.22,3.88.7a1.48,1.48,0,0,1-.08,1.63c-1.11,2-8.5,5-10,5.53C78,82.31,71.77,85.05,69.07,85.05Zm-.34-1.54.09,0c1.24.32,6.55-1.67,9.93-3.19C82.23,79,87.37,76.56,88,75.46a.41.41,0,0,0,0-.09,6.16,6.16,0,0,0-2.39,0l-.16,0q-1.66.16-3.21.39l-.18,0a4.6,4.6,0,0,1-3.29-.35,5.24,5.24,0,0,1-1.22-1.23,22.44,22.44,0,0,1-2.23-3.85,110,110,0,0,1-4.93-12.51,8.45,8.45,0,0,1,.37-6.59c.45-1.07,1-2.16,1.55-3.31,2-4.18,4.35-8.91,2.85-13.2-2.26-6.42-10.16-15-11.93-16.91L44.88,25.6c.11,2.58.75,14.25,3.77,20.34,2,4.08,7,5.73,11.43,7.19,1.22.4,2.37.78,3.45,1.2a8.43,8.43,0,0,1,5,4.35A110.27,110.27,0,0,1,74,70.94a21.19,21.19,0,0,1,1.19,4.29,5,5,0,0,1,0,1.73,4.55,4.55,0,0,1-2,2.6l-.14.11c-.82.63-1.67,1.31-2.52,2l-.13.11A6.2,6.2,0,0,0,68.73,83.51Zm-.1-.05Z"/><path d="M61.55,31.12a85.47,85.47,0,0,1-17.43-2,.75.75,0,0,1-.56-.9.75.75,0,0,1,.9-.56c.17,0,17.5,4,28.31.48a.75.75,0,1,1,.47,1.42A38.42,38.42,0,0,1,61.55,31.12Z"/></svg>