<?xml version="1.0" encoding="iso-8859-1"?>
<!-- Generator: Adobe Illustrator 19.0.0, SVG Export Plug-In . SVG Version: 6.00 Build 0)  -->
<svg xmlns="http://www.w3.org/2000/svg" xmlns:xlink="http://www.w3.org/1999/xlink" version="1.1" id="Layer_1" x="0px" y="0px" viewBox="0 0 512 512" style="enable-background:new 0 0 512 512;" xml:space="preserve">
<g>
	<g>
		<g>
			<path d="M370.846,0h-229.69c-25.245,0-45.783,20.538-45.783,45.783v420.435c0,25.244,20.538,45.782,45.783,45.782h229.69     c25.245,0,45.782-20.538,45.782-45.783V45.783C416.628,20.538,396.09,0,370.846,0z M396.549,466.217     c0,14.174-11.531,25.704-25.703,25.704h-229.69c-14.173,0-25.704-11.53-25.704-25.704V45.783     c0-14.174,11.531-25.704,25.704-25.704h229.69c14.172,0,25.703,11.53,25.703,25.704V466.217z"/>
			<path d="M366.402,40.025H145.598c-5.545,0-10.039,4.496-10.039,10.039v371.583c0,5.544,4.495,10.039,10.039,10.039h220.805     c5.544,0,10.039-4.496,10.039-10.039V50.065C376.442,44.521,371.947,40.025,366.402,40.025z M356.364,411.608L356.364,411.608     H155.637V60.104h200.727V411.608z"/>
			<path d="M238.122,200.13c8.086,0,15.753-1.817,22.626-5.05c6.25,3.22,13.329,5.05,20.83,5.05     c25.175,0,45.657-20.481,45.657-45.657s-20.481-45.657-45.657-45.657c-1.908,0-3.786,0.132-5.634,0.36     c-9.671-9.728-23.054-15.762-37.823-15.762c-29.422,0-53.358,23.937-53.358,53.357C184.764,176.193,208.7,200.13,238.122,200.13z      M291.48,146.77c0-5.888-0.973-11.55-2.743-16.851c10.631,3.105,18.421,12.934,18.421,24.553     c0,14.104-11.475,25.579-25.579,25.579c-0.586,0-1.166-0.027-1.743-0.066C287.114,170.863,291.48,159.32,291.48,146.77z      M268.249,132.651c2.019,4.29,3.153,9.073,3.153,14.119c0,9.215-3.767,17.567-9.839,23.599     c-3.477-4.369-5.562-9.893-5.562-15.897C256.001,145.248,260.909,137.152,268.249,132.651z M238.122,113.491     c5.927,0,11.492,1.565,16.318,4.292c-11.227,8.326-18.518,21.671-18.518,36.689c0,9.283,2.792,17.924,7.571,25.139     c-1.749,0.285-3.542,0.44-5.37,0.44c-18.351,0-33.28-14.929-33.28-33.28C204.842,128.421,219.771,113.491,238.122,113.491z"/>
			<path d="M279.64,299.046c-9.137,0-17.507,3.644-23.64,9.623c-6.132-5.978-14.504-9.623-23.639-9.623     c-18.667,0-33.853,15.186-33.853,33.853c0,29.93,47.042,58.424,52.407,61.576c1.541,0.905,3.302,1.382,5.089,1.382     c1.787,0,3.543-0.478,5.084-1.382c5.364-3.151,52.406-31.645,52.406-61.576C313.493,314.232,298.306,299.046,279.64,299.046z      M256.001,374.012c-16.971-11.012-37.415-29.081-37.415-41.113c0-7.595,6.179-13.775,13.775-13.775     c6.973,0,12.85,5.211,13.67,12.121c0.599,5.052,4.883,8.856,9.969,8.856s9.37-3.804,9.97-8.856     c0.82-6.91,6.697-12.121,13.67-12.121c7.595,0,13.775,6.179,13.775,13.775C293.414,344.932,272.967,363.002,256.001,374.012z"/>
			<path d="M258.509,451.765h-5.02c-5.545,0-10.039,4.496-10.039,10.039s4.495,10.039,10.039,10.039h5.02     c5.544,0,10.039-4.496,10.039-10.039S264.052,451.765,258.509,451.765z"/>
			<path d="M287.532,240.287c5.544,0,10.039-4.496,10.039-10.039s-4.496-10.039-10.039-10.039h-57.558     c-5.545,0-10.039,4.496-10.039,10.039s4.495,10.039,10.039,10.039H287.532z"/>
			<path d="M315.642,260.365h-80.648c-5.545,0-10.039,4.496-10.039,10.039c0,5.544,4.495,10.039,10.039,10.039h80.648     c5.544,0,10.039-4.496,10.039-10.039C325.681,264.861,321.186,260.365,315.642,260.365z"/>
			<path d="M203.537,280.443c5.545,0,10.039-4.496,10.039-10.039c0-5.544-4.495-10.039-10.039-10.039h-1.674     c-5.545,0-10.039,4.496-10.039,10.039c0,5.544,4.495,10.039,10.039,10.039H203.537z"/>
		</g>
	</g>
</g>
<g>
</g>
<g>
</g>
<g>
</g>
<g>
</g>
<g>
</g>
<g>
</g>
<g>
</g>
<g>
</g>
<g>
</g>
<g>
</g>
<g>
</g>
<g>
</g>
<g>
</g>
<g>
</g>
<g>
</g>
</svg>
