<?xml version="1.0" encoding="iso-8859-1"?>
<!-- Generator: Adobe Illustrator 19.0.0, SVG Export Plug-In . SVG Version: 6.00 Build 0)  -->
<svg xmlns="http://www.w3.org/2000/svg" xmlns:xlink="http://www.w3.org/1999/xlink" version="1.1" id="Layer_1" x="0px" y="0px" viewBox="0 0 512 512" style="enable-background:new 0 0 512 512;" xml:space="preserve">
<g>
	<g>
		<g>
			<path d="M414.566,293.914c1.941,1.836,4.42,2.746,6.896,2.746c2.663,0,5.322-1.053,7.296-3.141     c3.811-4.029,3.633-10.383-0.395-14.192c-26.332-24.904-50-58.896-70.348-101.032c-2.41-4.993-8.412-7.086-13.406-4.674     c-4.992,2.41-7.086,8.413-4.674,13.406C361.346,231.366,386.455,267.328,414.566,293.914z"/>
			<path d="M317.932,134.958c1.495,4.059,5.335,6.573,9.422,6.573c1.152,0,2.324-0.2,3.469-0.621     c5.203-1.917,7.867-7.687,5.951-12.89l-0.457-1.241c-1.905-5.207-7.673-7.881-12.878-5.976     c-5.207,1.905-7.883,7.672-5.976,12.878L317.932,134.958z"/>
			<path d="M188.486,120.803c-5.205-1.906-10.973,0.767-12.88,5.972c-24.352,66.461-55.294,117.76-91.966,152.476     c-4.027,3.812-4.201,10.166-0.39,14.192c1.975,2.086,4.63,3.137,7.292,3.137c2.477,0,4.958-0.911,6.9-2.749     c38.946-36.867,71.588-90.75,97.017-160.149C196.366,128.477,193.691,122.71,188.486,120.803z"/>
			<path d="M461.619,23.512H319.682C313.832,9.708,300.145,0,284.234,0c-11.077,0-21.167,4.713-28.231,12.333     C248.938,4.713,238.849,0,227.771,0c-15.912,0-29.599,9.708-35.448,23.512H50.382c-5.545,0-10.039,4.495-10.039,10.039v468.41     c0,2.669,1.063,5.228,2.955,7.113c1.882,1.874,4.429,2.926,7.085,2.926c0.014,0,0.027,0,0.041,0l82.914-0.331     c3.131-0.013,6.077-1.485,7.966-3.983c1.889-2.498,2.505-5.732,1.665-8.749c-8.07-28.983-29.921-67.602-48.827-97.709     c3.745-1.458,6.402-5.089,6.402-9.349v-45.135c0-0.981-0.148-1.926-0.41-2.822c36.389-27.161,68.541-66.037,95.938-116.15     c23.014-42.092,38.945-85.326,49.595-120.67c2.519,1.609,4.365,2.713,5.249,3.232c1.541,0.906,3.303,1.382,5.09,1.382     c1.787,0,3.543-0.478,5.084-1.382c0.875-0.514,2.696-1.603,5.178-3.186c10.65,35.336,26.578,78.551,49.581,120.625     c27.398,50.113,59.549,88.989,95.938,116.15c-0.262,0.896-0.41,1.841-0.41,2.822v45.135c0,4.261,2.657,7.892,6.402,9.349     c-18.906,30.107-40.757,68.725-48.827,97.709c-0.839,3.017-0.224,6.252,1.666,8.749c1.889,2.497,4.835,3.97,7.966,3.983     L461.578,512c0.014,0,0.027,0,0.04,0c2.655,0,5.203-1.052,7.085-2.926c1.891-1.883,2.955-4.443,2.955-7.113V33.551     C471.658,28.006,467.163,23.512,461.619,23.512z M60.422,43.59h129.266c0.983,6.515,3.757,12.937,7.619,19.075H60.422V43.59z      M119.405,491.646l-58.983,0.236v-89.963h10.299C87.516,427.944,108.644,463.3,119.405,491.646z M60.423,381.841v-25.057h20.042     v25.057H60.423z M75.354,336.704H60.422V82.743h153.796c4.659,4.454,9.509,8.534,14.113,12.118     C208.254,163.448,162.827,279.95,75.354,336.704z M256.003,89.897c-19.858-12.696-46.631-35.29-46.631-51.419     c0-10.146,8.254-18.4,18.4-18.4c9.314,0,17.166,6.963,18.262,16.196c0.6,5.051,4.882,8.856,9.969,8.856     c5.086,0,9.37-3.805,9.969-8.855c1.097-9.234,8.948-16.197,18.262-16.197c10.146,0,18.4,8.254,18.4,18.4     C302.634,54.608,275.857,77.205,256.003,89.897z M451.579,491.882l-59.064-0.236c10.762-28.347,31.89-63.702,48.684-89.728h10.38     V491.882z M431.456,381.841v-25.057h20.042v25.057H431.456z M451.579,336.704h-15.008     c-87.443-56.744-132.881-173.198-152.964-241.789c4.624-3.597,9.498-7.695,14.18-12.172h153.792V336.704z M451.581,62.665h-0.001     H314.699c3.862-6.138,6.636-12.559,7.619-19.075h129.263V62.665z"/>
		</g>
	</g>
</g>
<g>
</g>
<g>
</g>
<g>
</g>
<g>
</g>
<g>
</g>
<g>
</g>
<g>
</g>
<g>
</g>
<g>
</g>
<g>
</g>
<g>
</g>
<g>
</g>
<g>
</g>
<g>
</g>
<g>
</g>
</svg>
