<?xml version="1.0" encoding="iso-8859-1"?>
<!-- Generator: Adobe Illustrator 19.0.0, SVG Export Plug-In . SVG Version: 6.00 Build 0)  -->
<svg xmlns="http://www.w3.org/2000/svg" xmlns:xlink="http://www.w3.org/1999/xlink" version="1.1" id="Layer_1" x="0px" y="0px" viewBox="0 0 512 512" style="enable-background:new 0 0 512 512;" xml:space="preserve">
<g>
	<g>
		<g>
			<path d="M501.951,135.16H185.895c0.003-0.335,0.013-0.669,0.013-1.005c0-51.255-41.699-92.954-92.954-92.954     C41.699,41.201,0,82.9,0,134.155c0,3.268,0.172,6.497,0.502,9.679v264.66c0,34.355,27.949,62.304,62.304,62.304h60.294     c34.355,0,62.304-27.949,62.304-62.304v-32.157h316.546c5.549,0,10.049-4.499,10.049-10.049V145.209     C512,139.659,507.5,135.16,501.951,135.16z M165.307,366.289v42.206c0,23.273-18.933,42.206-42.206,42.206H62.807     c-23.273,0-42.206-18.933-42.206-42.206V192.44c17.053,21.128,43.15,34.669,72.353,34.669c29.204,0,55.3-13.541,72.353-34.669     V366.289z M92.954,207.011c-40.173,0-72.856-32.683-72.856-72.856c0-40.173,32.683-72.856,72.856-72.856     s72.856,32.683,72.856,72.856C165.81,174.328,133.127,207.011,92.954,207.011z M491.902,356.239H185.405V155.258h306.497V356.239     z"/>
			<path d="M361.682,208.326c-8.88,0-17.023,3.504-23.028,9.268c-6.005-5.764-14.148-9.268-23.028-9.268     c-18.332,0-33.246,14.915-33.246,33.246c0,13.199,8.966,27.525,26.647,42.577c12.085,10.288,24.034,17.343,24.537,17.638     c1.542,0.906,3.304,1.384,5.093,1.384s3.546-0.478,5.089-1.384c0.502-0.295,12.452-7.35,24.537-17.638     c17.681-15.052,26.647-29.377,26.647-42.577C394.928,223.24,380.014,208.326,361.682,208.326z M338.648,281.306     c-16.445-10.673-36.171-28.103-36.171-39.733c0-7.25,5.898-13.148,13.148-13.148c6.655,0,12.266,4.974,13.049,11.571     c0.601,5.056,4.888,8.863,9.98,8.863s9.379-3.808,9.98-8.863c0.783-6.596,6.393-11.571,13.049-11.571     c7.25,0,13.148,5.899,13.148,13.148C374.83,253.162,355.094,270.61,338.648,281.306z"/>
			<path d="M92.954,81.397c-29.09,0-52.758,23.667-52.758,52.758c0,29.091,23.668,52.758,52.758,52.758     c29.09,0,52.758-23.667,52.758-52.758C145.711,105.064,122.044,81.397,92.954,81.397z M92.954,166.815     c-18.009,0-32.659-14.652-32.659-32.659c0-18.008,14.651-32.659,32.659-32.659c18.009,0,32.659,14.652,32.659,32.659     C125.613,152.163,110.963,166.815,92.954,166.815z"/>
			<path d="M135.16,335.136H50.748c-5.549,0-10.049,4.499-10.049,10.049v63.309c0,12.19,9.917,22.108,22.108,22.108h60.294     c12.191,0,22.108-9.917,22.108-22.108v-63.309C145.209,339.635,140.709,335.136,135.16,335.136z M125.111,408.495     c0,1.108-0.901,2.01-2.01,2.01H62.807c-1.108,0-2.01-0.901-2.01-2.01v-53.26h64.314V408.495z"/>
			<path d="M215.552,336.141h144.707c5.549,0,10.049-4.499,10.049-10.049s-4.5-10.049-10.049-10.049H225.602V195.454h226.104     v130.638c0,5.55,4.5,10.049,10.049,10.049c5.549,0,10.049-4.499,10.049-10.049V185.405c0-5.55-4.5-10.049-10.049-10.049H215.552     c-5.549,0-10.049,4.499-10.049,10.049v140.687C205.503,331.642,210.003,336.141,215.552,336.141z"/>
			<path d="M412.514,316.043h-3.517c-5.549,0-10.049,4.499-10.049,10.049s4.5,10.049,10.049,10.049h3.517     c5.549,0,10.049-4.499,10.049-10.049S418.063,316.043,412.514,316.043z"/>
			<path d="M114.392,308.004c16.623,0,30.147-13.524,30.147-30.147c0-16.623-13.524-30.147-30.147-30.147     s-30.147,13.524-30.147,30.147C84.244,294.48,97.768,308.004,114.392,308.004z M114.392,267.808     c5.541,0,10.049,4.508,10.049,10.049c0,5.541-4.508,10.049-10.049,10.049c-5.541,0-10.049-4.508-10.049-10.049     C104.342,272.316,108.851,267.808,114.392,267.808z"/>
		</g>
	</g>
</g>
<g>
</g>
<g>
</g>
<g>
</g>
<g>
</g>
<g>
</g>
<g>
</g>
<g>
</g>
<g>
</g>
<g>
</g>
<g>
</g>
<g>
</g>
<g>
</g>
<g>
</g>
<g>
</g>
<g>
</g>
</svg>
